<svg width="478" height="289" viewBox="0 0 478 289" fill="none" xmlns="http://www.w3.org/2000/svg">
<path d="M474.618 208.079C475.184 209.964 475.63 211.891 475.952 213.846L476.742 213.735C476.416 211.75 475.962 209.793 475.388 207.881L474.618 208.079ZM476.526 219.719C476.542 220.188 476.55 220.657 476.55 221.126C476.55 222.616 476.474 224.111 476.32 225.611L477.116 225.681C477.274 224.158 477.35 222.638 477.35 221.126C477.35 220.65 477.342 220.173 477.326 219.697L476.526 219.719ZM475.324 231.432C474.868 233.326 474.278 235.214 473.548 237.091L474.302 237.342C475.042 235.436 475.64 233.518 476.106 231.595L475.324 231.432ZM471.028 242.501C470.088 244.219 469.022 245.918 467.82 247.59L468.486 248C469.704 246.306 470.788 244.58 471.742 242.836L471.028 242.501ZM464 252.305C462.668 253.772 461.22 255.21 459.652 256.615L460.208 257.149C461.796 255.727 463.262 254.269 464.612 252.783L464 252.305ZM454.866 260.509C453.25 261.704 451.536 262.868 449.718 263.993L450.162 264.61C451.998 263.472 453.732 262.297 455.364 261.089L454.866 260.509ZM444.28 267.084C442.476 268.026 440.588 268.934 438.614 269.807L438.958 270.476C440.948 269.597 442.854 268.68 444.672 267.731L444.28 267.084ZM432.766 272.186C430.842 272.905 428.846 273.593 426.776 274.249L427.034 274.949C429.118 274.291 431.128 273.598 433.064 272.872L432.766 272.186ZM420.678 276.022C418.678 276.556 416.618 277.06 414.494 277.533L414.68 278.254C416.816 277.777 418.888 277.271 420.898 276.736L420.678 276.022ZM408.244 278.802C406.198 279.178 404.1 279.529 401.946 279.849L402.074 280.581C404.236 280.259 406.344 279.907 408.4 279.529L408.244 278.802ZM395.612 280.696C393.538 280.941 391.416 281.161 389.25 281.358L389.326 282.095C391.502 281.899 393.63 281.678 395.712 281.432L395.612 280.696ZM382.868 281.847C380.778 281.98 378.646 282.092 376.474 282.179L376.508 282.92C378.688 282.833 380.826 282.72 382.924 282.586L382.868 281.847ZM370.07 282.368C368.166 282.401 366.23 282.42 364.264 282.42C364.064 282.42 363.864 282.42 363.662 282.42L363.66 283.161C363.862 283.161 364.064 283.161 364.264 283.161C366.236 283.161 368.176 283.142 370.086 283.107L370.07 282.368ZM357.254 282.345C355.152 282.303 353.016 282.24 350.848 282.156L350.814 282.898C352.988 282.981 355.128 283.044 357.236 283.087L357.254 282.345ZM344.446 281.858C342.344 281.743 340.212 281.61 338.05 281.456L337.99 282.195C340.156 282.349 342.292 282.483 344.398 282.598L344.446 281.858ZM331.662 280.959C329.562 280.781 327.436 280.587 325.282 280.374L325.198 281.111C327.354 281.324 329.486 281.519 331.588 281.699L331.662 280.959ZM318.912 279.703C316.816 279.467 314.696 279.217 312.552 278.95L312.444 279.686C314.594 279.953 316.716 280.203 318.816 280.438L318.912 279.703ZM306.202 278.124C304.112 277.84 301.998 277.54 299.862 277.225L299.738 277.957C301.876 278.272 303.992 278.572 306.086 278.858L306.202 278.124ZM293.536 276.259C291.452 275.93 289.346 275.587 287.22 275.229L287.076 275.957C289.206 276.317 291.314 276.66 293.4 276.99L293.536 276.259ZM280.916 274.136C278.838 273.767 276.742 273.383 274.624 272.985L274.466 273.711C276.584 274.11 278.684 274.493 280.764 274.864L280.916 274.136ZM268.344 271.778C266.274 271.372 264.184 270.952 262.076 270.518L261.902 271.243C264.014 271.676 266.104 272.097 268.178 272.505L268.344 271.778ZM255.82 269.208C253.756 268.767 251.674 268.315 249.576 267.849L249.39 268.57C251.49 269.036 253.574 269.49 255.64 269.931L255.82 269.208ZM243.344 266.443C241.288 265.97 239.214 265.487 237.124 264.992L236.926 265.709C239.018 266.206 241.092 266.689 243.152 267.162L243.344 266.443ZM230.916 263.496C230.316 263.35 229.714 263.203 229.112 263.055C227.634 262.69 226.162 262.342 224.696 262.008L224.504 262.727C225.966 263.061 227.434 263.407 228.906 263.771C229.508 263.919 230.11 264.067 230.712 264.213L230.916 263.496ZM218.434 260.665C216.324 260.24 214.224 259.844 212.134 259.477L211.986 260.205C214.068 260.572 216.16 260.965 218.264 261.389L218.434 260.665ZM205.798 258.444C203.666 258.124 201.544 257.833 199.436 257.57L199.328 258.303C201.43 258.567 203.544 258.858 205.67 259.176L205.798 258.444ZM193.05 256.849C190.904 256.634 188.768 256.445 186.648 256.283L186.582 257.021C188.696 257.184 190.824 257.371 192.964 257.586L193.05 256.849ZM180.232 255.868C178.076 255.755 175.934 255.666 173.808 255.603L173.782 256.345C175.902 256.408 178.036 256.495 180.186 256.61L180.232 255.868ZM167.378 255.483C166.63 255.477 165.884 255.475 165.14 255.475C163.736 255.475 162.34 255.485 160.952 255.503L160.964 256.245C162.348 256.226 163.74 256.217 165.14 256.217C165.882 256.217 166.626 256.219 167.372 256.224L167.378 255.483ZM154.528 255.661C152.37 255.737 150.23 255.833 148.108 255.948L148.156 256.689C150.272 256.573 152.406 256.476 154.558 256.402L154.528 255.661ZM141.698 256.361C139.544 256.519 137.41 256.697 135.298 256.891L135.376 257.629C137.484 257.434 139.614 257.258 141.762 257.099L141.698 256.361ZM128.91 257.531C126.762 257.764 124.637 258.013 122.535 258.274L122.641 259.008C124.739 258.746 126.86 258.5 129.002 258.266L128.91 257.531ZM116.174 259.108C114.033 259.404 111.917 259.712 109.828 260.027L109.956 260.759C112.043 260.444 114.155 260.136 116.292 259.842L116.174 259.108ZM103.494 261.018C101.357 261.363 99.25 261.713 97.1724 262.067L97.317 262.798C99.3926 262.444 101.498 262.093 103.631 261.749L103.494 261.018ZM90.8608 263.163C88.7246 263.541 86.6228 263.917 84.556 264.288L84.7084 265.016C86.7748 264.643 88.8756 264.267 91.0104 263.891L90.8608 263.163ZM78.2548 265.42C76.112 265.804 74.0108 266.178 71.9518 266.536L72.0998 267.264C74.1606 266.906 76.2632 266.532 78.4066 266.148L78.2548 265.42ZM65.6422 267.605C63.4818 267.959 61.3736 268.289 59.3192 268.587L59.4434 269.319C61.5038 269.019 63.617 268.689 65.7812 268.335L65.6422 267.605ZM52.9774 269.427C50.7848 269.684 48.6628 269.894 46.6134 270.047L46.6776 270.787C48.7414 270.631 50.8752 270.422 53.0778 270.162L52.9774 269.427ZM40.2326 270.335C39.942 270.338 39.653 270.338 39.366 270.338C37.4526 270.338 35.6182 270.268 33.8648 270.116L33.7904 270.855C35.5722 271.009 37.4312 271.08 39.366 271.08C39.6562 271.08 39.9482 271.08 40.242 271.076L40.2326 270.335ZM27.6082 269.137C25.4832 268.63 23.5162 267.948 21.7098 267.067L21.3376 267.725C23.2052 268.633 25.2314 269.336 27.4084 269.857L27.6082 269.137ZM16.615 263.67C15.1634 262.371 13.8672 260.855 12.7296 259.089L12.0428 259.469C13.214 261.287 14.5548 262.859 16.0594 264.204L16.615 263.67ZM10.0722 253.767C9.3396 251.895 8.675 250.02 8.0772 248.139L7.3098 248.35C7.9124 250.244 8.582 252.134 9.3202 254.021L10.0722 253.767ZM6.4606 242.408C5.9836 240.474 5.5746 238.535 5.2318 236.597L4.4424 236.715C4.7876 238.67 5.2 240.624 5.6808 242.573L6.4606 242.408ZM4.3948 230.724C4.1806 228.754 4.033 226.784 3.9498 224.816L3.1504 224.843C3.2342 226.828 3.3832 228.813 3.599 230.798L4.3948 230.724ZM3.8926 218.891C3.9374 216.917 4.0454 214.947 4.2148 212.979L3.4174 212.92C3.2466 214.901 3.1378 216.887 3.0928 218.876L3.8926 218.891ZM4.9046 207.099C5.194 205.147 5.5424 203.203 5.9482 201.265L5.1628 201.124C4.7544 203.075 4.4034 205.032 4.112 206.997L4.9046 207.099ZM7.33 195.496C7.8456 193.583 8.416 191.678 9.0394 189.786L8.2742 189.569C7.6468 191.474 7.0728 193.39 6.554 195.316L7.33 195.496ZM11.057 184.161C11.7772 182.306 12.5478 180.464 13.3668 178.633L12.6276 178.35C11.804 180.19 11.029 182.045 10.3044 183.909L11.057 184.161ZM15.9526 173.21C16.8564 171.426 17.8058 169.654 18.7992 167.899L18.0908 167.554C17.092 169.319 16.1372 171.1 15.2284 172.895L15.9526 173.21ZM21.8922 162.706C22.96 161 24.0692 159.311 25.218 157.638L24.543 157.239C23.3884 158.92 22.2736 160.62 21.2002 162.334L21.8922 162.706ZM28.7538 152.712C29.9654 151.094 31.214 149.497 32.4982 147.918L31.8592 147.471C30.569 149.057 29.3142 150.664 28.0966 152.289L28.7538 152.712ZM36.4404 143.257C37.7846 141.728 39.162 140.221 40.571 138.735L39.9702 138.246C38.5546 139.739 37.1708 141.253 35.8202 142.788L36.4404 143.257ZM44.8814 134.357C46.3462 132.923 47.8406 131.513 49.3634 130.127L48.8026 129.597C47.273 130.99 45.7718 132.408 44.3004 133.848L44.8814 134.357ZM54.0094 126.044C55.5846 124.71 57.186 123.401 58.8126 122.119L58.2942 121.555C56.6606 122.842 55.0518 124.157 53.4696 125.497L54.0094 126.044ZM63.7666 118.353C65.4434 117.126 67.1434 115.925 68.8652 114.754L68.3918 114.157C66.6622 115.332 64.9546 116.539 63.2704 117.773L63.7666 118.353ZM74.1026 111.326C75.873 110.21 77.6636 109.126 79.473 108.075L79.0478 107.447C77.2302 108.503 75.4314 109.593 73.653 110.712L74.1026 111.326ZM84.971 105.008C86.8274 104.016 88.7012 103.058 90.5904 102.133L90.2172 101.477C88.319 102.406 86.4364 103.37 84.5712 104.367L84.971 105.008ZM96.3258 99.4611C98.255 98.6049 100.198 97.7858 102.154 97.0037L101.837 96.3236C99.8718 97.1094 97.919 97.9322 95.9804 98.7921L96.326 99.4611H96.3258ZM108.083 94.7669C110.08 94.0571 112.088 93.3862 114.105 92.758L113.851 92.0556C111.823 92.6876 109.804 93.3603 107.796 94.0738L108.083 94.7669ZM120.214 90.9919C122.27 90.4414 124.332 89.9374 126.401 89.4759L126.214 88.755C124.134 89.2183 122.059 89.7261 119.993 90.2784L120.215 90.9919H120.214ZM132.654 88.225C134.754 87.8525 136.858 87.5282 138.964 87.2521L138.852 86.5181C136.734 86.7961 134.616 87.1223 132.504 87.4967L132.654 88.225ZM145.332 86.5701C147.462 86.3921 149.592 86.2643 151.722 86.1901L151.692 85.4507C149.548 85.5248 147.404 85.6527 145.26 85.8306L145.332 86.5701ZM158.116 86.129C160.25 86.1642 162.38 86.2513 164.504 86.3958L164.562 85.6564C162.424 85.5118 160.278 85.4229 158.13 85.3896L158.116 86.129ZM170.864 87C172.974 87.2594 175.078 87.5745 177.172 87.9507L177.324 87.2224C175.214 86.8443 173.094 86.5256 170.968 86.2661L170.864 87ZM183.406 89.2498C185.462 89.7391 187.508 90.2895 189.54 90.8992L189.786 90.195C187.738 89.5797 185.676 89.0256 183.604 88.5308L183.406 89.2498ZM195.55 92.8988C197.522 93.6197 199.478 94.3999 201.42 95.2432L201.76 94.5704C199.804 93.7216 197.83 92.9359 195.844 92.2094L195.55 92.8988ZM207.12 97.9193C208.976 98.857 210.814 99.8559 212.634 100.914L213.06 100.286C211.226 99.2202 209.374 98.2139 207.504 97.2688L207.12 97.9193ZM217.944 104.211C219.66 105.347 221.358 106.54 223.036 107.793L223.538 107.215C221.848 105.955 220.138 104.752 218.408 103.609L217.944 104.213V104.211ZM227.902 111.635C228.918 112.482 229.926 113.353 230.924 114.248C231.472 114.739 232.022 115.223 232.572 115.701L233.118 115.162C232.572 114.685 232.026 114.202 231.48 113.714C230.474 112.816 229.46 111.937 228.438 111.085L227.902 111.635ZM237.338 119.689C238.978 121.007 240.624 122.274 242.278 123.496L242.776 122.916C241.132 121.702 239.494 120.44 237.862 119.129L237.338 119.689ZM247.386 127.104C249.138 128.286 250.896 129.419 252.66 130.503L253.102 129.886C251.348 128.807 249.6 127.68 247.858 126.504L247.386 127.104ZM258.09 133.683C259.946 134.717 261.806 135.699 263.672 136.635L264.052 135.983C262.198 135.052 260.348 134.076 258.502 133.049L258.09 133.683ZM269.39 139.352C271.334 140.225 273.282 141.051 275.232 141.832L275.55 141.15C273.608 140.375 271.672 139.554 269.738 138.685L269.39 139.352ZM281.188 144.07C283.204 144.782 285.222 145.449 287.242 146.074L287.496 145.371C285.486 144.749 283.478 144.085 281.474 143.377L281.188 144.07ZM293.378 147.847C295.446 148.403 297.516 148.918 299.584 149.398L299.778 148.679C297.72 148.201 295.66 147.688 293.602 147.134L293.378 147.847ZM305.848 150.74C307.952 151.155 310.054 151.537 312.156 151.887L312.298 151.157C310.204 150.809 308.11 150.429 306.014 150.015L305.848 150.74ZM318.498 152.855C320.626 153.149 322.748 153.416 324.868 153.659L324.966 152.923C322.852 152.68 320.736 152.415 318.618 152.121L318.498 152.855ZM331.256 154.321C333.394 154.521 335.528 154.699 337.656 154.86L337.72 154.12C335.598 153.959 333.47 153.781 331.336 153.583L331.256 154.321ZM344.064 155.295C346.21 155.427 348.348 155.544 350.478 155.651L350.52 154.91C348.394 154.804 346.258 154.686 344.116 154.556L344.064 155.295ZM356.892 155.948C359.042 156.04 361.182 156.127 363.308 156.211L363.342 155.471C361.216 155.386 359.078 155.299 356.93 155.208L356.892 155.948ZM369.722 156.465C371.874 156.552 374.012 156.641 376.134 156.737L376.174 155.996C374.048 155.899 371.91 155.811 369.758 155.725L369.722 156.465ZM382.54 157.056C384.692 157.173 386.824 157.304 388.94 157.452L389 156.713C386.88 156.565 384.742 156.433 382.588 156.315L382.54 157.056ZM395.326 157.96C397.47 158.155 399.592 158.372 401.69 158.62L401.792 157.884C399.684 157.636 397.554 157.417 395.402 157.223L395.326 157.96ZM408.024 159.471C410.146 159.793 412.242 160.153 414.31 160.557L414.474 159.832C412.394 159.426 410.288 159.063 408.154 158.739L408.024 159.471ZM420.524 161.928C422.592 162.44 424.63 163.005 426.632 163.629L426.888 162.927C424.868 162.297 422.814 161.728 420.73 161.211L420.524 161.928ZM432.61 165.712C434.566 166.47 436.484 167.297 438.364 168.198L438.732 167.538C436.832 166.63 434.894 165.794 432.918 165.028L432.61 165.712ZM443.882 171.122C445.66 172.162 447.398 173.279 449.096 174.484L449.584 173.894C447.866 172.677 446.108 171.546 444.31 170.494L443.882 171.122ZM453.96 178.268C455.494 179.573 456.988 180.961 458.444 182.438L459.034 181.937C457.564 180.446 456.052 179.043 454.502 177.721L453.96 178.268ZM462.53 186.947C463.798 188.468 465.03 190.067 466.228 191.75L466.896 191.343C465.688 189.645 464.444 188.029 463.164 186.494L462.53 186.947ZM469.552 196.8C469.63 196.93 469.708 197.058 469.786 197.188C470.816 198.894 471.742 200.668 472.554 202.499L473.292 202.217C472.47 200.36 471.53 198.557 470.486 196.824C470.406 196.695 470.328 196.565 470.25 196.437L469.552 196.8Z" fill="#14803B"/>
<path d="M468.816 288.452H0C14.672 188.007 114.016 110.312 234.408 110.312C354.792 110.312 454.144 188.007 468.816 288.452Z" fill="#4ED37F"/>
<path d="M407.706 287.57H231.37C223.16 287.57 216.504 281.402 216.504 273.795V39.4164C216.504 31.8089 223.16 25.6413 231.37 25.6413H407.706C415.914 25.6413 422.57 31.8089 422.57 39.4164V273.795C422.57 281.402 415.914 287.57 407.706 287.57Z" fill="#A9BAE6"/>
<path d="M404.736 36.1973V264.493H235.128V36.1973H404.736Z" fill="#F6F5F5"/>
<path d="M404.736 36.1992C404.788 125.221 407.89 232.588 397.098 256.359C349.566 260.651 293.908 262.028 235.126 262.284L257.47 36.8867L404.736 36.1992Z" fill="#E4E4E4"/>
<path d="M389.502 249.165C315.414 260.153 265.896 260.733 225.736 257.97C230.942 206.634 233.028 121.353 235.126 36.2085L324.404 36.3919L405.204 41.3345C406.38 129.706 406.51 211.335 389.502 249.165Z" fill="white"/>
<path d="M363.004 71.7905L273.78 69.8446L274.1 57.2519L363.324 59.1978L363.004 71.7905Z" fill="#708CD5"/>
<path d="M380.524 90.0134L300.044 88.2583L299.898 94.0237L380.378 95.7787L380.524 90.0134Z" fill="#708CD5"/>
<path d="M354.428 102.02L299.726 100.827L299.578 106.59L354.282 107.784L354.428 102.02Z" fill="#D3DFFF"/>
<path d="M274.236 105.699L255.184 105.284L255.632 87.6301L274.686 88.0452L274.236 105.699Z" fill="white"/>
<path d="M274.236 105.699L274.252 105.143L255.798 104.741L256.218 88.1991L274.072 88.5882L273.638 105.686L274.236 105.699L274.836 105.712L275.3 87.5022L255.048 87.0612L254.57 105.827L274.822 106.268L274.836 105.712L274.236 105.699Z" fill="#708CD5"/>
<path d="M258.738 92.2743C259.326 94.361 260.412 103.103 265.136 100.658C266.226 100.095 267.148 98.6049 267.964 97.7469C269.428 96.2068 270.892 94.6649 272.358 93.1249C275.288 90.043 278.218 86.9592 281.146 83.8773C281.898 83.0878 278.582 81.1067 277.64 82.0982C275.036 84.8372 272.432 87.5782 269.828 90.3172C268.526 91.6868 267.224 93.0563 265.92 94.4277C265.018 95.3784 262.928 98.4437 261.586 98.7161C262.316 98.9348 263.046 99.1516 263.774 99.3703C264.29 99.7613 263.332 96.9852 263.312 96.9092C262.948 95.6212 262.584 94.3313 262.22 93.0415C261.92 91.9777 258.294 90.6972 258.738 92.2743Z" fill="#EE6F57"/>
<path d="M365.502 121.8L299.23 120.354L299.084 126.12L365.356 127.565L365.502 121.8Z" fill="#708CD5"/>
<path d="M379.39 134.678L298.91 132.923L298.764 138.688L379.244 140.443L379.39 134.678Z" fill="#D3DFFF"/>
<path d="M273.422 137.795L254.37 137.38L254.818 119.726L273.87 120.141L273.422 137.795Z" fill="white"/>
<path d="M273.422 137.795L273.436 137.239L254.984 136.837L255.404 120.295L273.256 120.684L272.822 137.782L273.422 137.795L274.022 137.808L274.484 119.598L254.232 119.157L253.756 137.923L274.008 138.364L274.022 137.808L273.422 137.795Z" fill="#708CD5"/>
<path d="M257.91 124.869C258.498 126.956 259.584 135.697 264.308 133.253C265.398 132.69 266.32 131.2 267.136 130.342C268.6 128.801 270.066 127.26 271.53 125.72C274.46 122.636 277.39 119.554 280.32 116.472C281.07 115.682 277.754 113.701 276.812 114.693C274.208 117.432 271.604 120.173 269 122.912C267.698 124.281 266.396 125.651 265.094 127.021C264.19 127.971 262.1 131.038 260.76 131.311C261.488 131.528 262.218 131.746 262.946 131.965C263.462 132.356 262.504 129.58 262.484 129.504C262.12 128.216 261.756 126.926 261.394 125.636C261.092 124.572 257.466 123.292 257.91 124.869Z" fill="#EE6F57"/>
<path d="M378.894 154.207L298.414 152.452L298.268 158.216L378.748 159.971L378.894 154.207Z" fill="#708CD5"/>
<path d="M334.086 165.805L298.094 165.019L297.948 170.785L333.94 171.569L334.086 165.805Z" fill="#D3DFFF"/>
<path d="M272.606 169.891L253.554 169.476L254.002 151.822L273.054 152.237L272.606 169.891Z" fill="white"/>
<path d="M272.606 169.891L272.62 169.337L254.168 168.933L254.588 152.391L272.44 152.78L272.006 169.878L272.606 169.891L273.206 169.904L273.668 151.694L253.416 151.253L252.94 170.019L273.192 170.46L273.206 169.904L272.606 169.891Z" fill="#708CD5"/>
<path d="M257.354 157.193C257.942 159.28 259.028 168.021 263.752 165.577C264.842 165.014 265.764 163.524 266.578 162.666C268.044 161.126 269.508 159.584 270.974 158.044C273.902 154.962 276.832 151.878 279.762 148.796C280.512 148.007 277.198 146.025 276.256 147.017C273.652 149.756 271.046 152.497 268.442 155.236C267.14 156.606 265.838 157.975 264.536 159.346C263.632 160.297 261.544 163.362 260.202 163.635C260.932 163.854 261.66 164.07 262.39 164.289C262.904 164.68 261.948 161.904 261.926 161.828C261.564 160.54 261.2 159.25 260.836 157.96C260.536 156.896 256.908 155.616 257.354 157.193Z" fill="#EE6F57"/>
<path d="M378.078 186.304L297.6 184.549L297.452 190.312L377.932 192.067L378.078 186.304Z" fill="#708CD5"/>
<path d="M360.856 198.503L297.28 197.115L297.134 202.881L360.71 204.267L360.856 198.503Z" fill="#D3DFFF"/>
<path d="M271.792 201.989L252.738 201.572L253.188 183.918L272.24 184.334L271.792 201.989Z" fill="white"/>
<path d="M271.792 201.989L271.806 201.433L253.352 201.029L253.774 184.487L271.626 184.877L271.192 201.976L271.792 201.989L272.392 202.002L272.854 183.791L252.602 183.35L252.124 202.115L272.378 202.558L272.392 202.002L271.792 201.989Z" fill="#708CD5"/>
<path d="M256.544 189.08C257.132 191.166 258.218 199.906 262.942 197.462C264.032 196.898 264.954 195.408 265.768 194.552C267.234 193.01 268.698 191.47 270.164 189.928C273.094 186.847 276.022 183.765 278.952 180.683C279.704 179.893 276.388 177.91 275.446 178.904C272.842 181.643 270.236 184.382 267.632 187.123C266.33 188.492 265.028 189.862 263.726 191.231C262.822 192.182 260.734 195.249 259.392 195.52C260.122 195.738 260.85 195.957 261.58 196.174C262.094 196.567 261.138 193.791 261.116 193.715C260.754 192.425 260.39 191.137 260.026 189.847C259.726 188.781 256.098 187.501 256.544 189.08Z" fill="#EE6F57"/>
<path d="M328.692 217.097L296.79 216.402L296.644 222.165L328.546 222.862L328.692 217.097Z" fill="#708CD5"/>
<path d="M376.95 230.726L296.47 228.971L296.324 234.734C327.462 235.411 367.106 236.763 375.196 235.613C376.424 234.319 377.086 232.731 376.95 230.726Z" fill="#D3DFFF"/>
<path d="M271.248 233.848L252.196 233.433L252.644 215.777L271.698 216.194L271.248 233.848Z" fill="white"/>
<path d="M271.248 233.848L271.262 233.292L252.81 232.89L253.23 216.346L271.084 216.735L270.648 233.835L271.248 233.848L271.848 233.861L272.312 215.651L252.06 215.208L251.582 233.974L271.834 234.417L271.848 233.861L271.248 233.848Z" fill="#708CD5"/>
<path d="M255.742 220.687C256.33 222.773 257.416 231.513 262.14 229.069C263.228 228.505 264.152 227.015 264.966 226.159C266.43 224.617 267.896 223.075 269.36 221.535C272.29 218.453 275.22 215.371 278.15 212.29C278.9 211.498 275.586 209.517 274.642 210.509C272.038 213.25 269.434 215.989 266.83 218.728C265.528 220.099 264.226 221.469 262.924 222.838C262.02 223.789 259.93 226.854 258.59 227.127C259.32 227.345 260.048 227.564 260.778 227.781C261.292 228.174 260.336 225.396 260.314 225.321C259.95 224.032 259.586 222.742 259.224 221.454C258.924 220.388 255.296 219.108 255.742 220.687Z" fill="#EE6F57"/>
<path d="M357.736 27.2277V44.8483H281.336V27.2277C281.336 24.4182 282.568 21.8756 284.552 20.0298C284.8 19.8 285.056 19.585 285.328 19.3849C287.224 17.9245 289.664 17.0498 292.32 17.0498C294.312 17.0498 296.224 16.6273 297.936 15.8637C298.68 15.5301 299.384 15.1373 300.048 14.6851C302.232 13.1877 303.904 11.0601 304.736 8.52493C305.584 5.93781 307.32 3.77325 309.568 2.26842C311.728 0.830315 314.36 6.10352e-05 317.152 6.10352e-05H321.92C324.712 6.10352e-05 327.344 0.830315 329.504 2.26842C331.752 3.77325 333.488 5.93781 334.336 8.52493C335.168 11.0601 336.84 13.1877 339.024 14.6851C339.688 15.1373 340.392 15.5301 341.136 15.8637C342.848 16.6273 344.76 17.0498 346.752 17.0498C349.408 17.0498 351.848 17.9245 353.744 19.3849C356.184 21.2455 357.736 24.0698 357.736 27.2277Z" fill="#EE6F57"/>
<path d="M363.936 36.1973V49.296H275.136V36.1973H281.336V44.8482H357.736V36.1973H363.936Z" fill="#E4E4E4"/>
<path d="M326.314 10.5616C326.314 13.8585 323.28 16.5308 319.538 16.5308C315.794 16.5308 312.76 13.8585 312.76 10.5616C312.76 7.26652 315.794 4.59416 319.538 4.59416C323.28 4.59416 326.314 7.26652 326.314 10.5616Z" fill="white"/>
<path d="M173.12 93.0563C170.41 92.58 167.878 88.3862 166.998 86.7776C166.782 86.3828 166.714 85.9362 166.802 85.5007L167.882 80.2042C167.882 80.2042 170.37 80.5952 170.178 83.666C170.158 83.9848 170.228 84.3035 170.35 84.6019L171.304 86.911L174.12 84.891L172.576 80.8491C172.576 80.8491 170.508 81.3754 169.44 81.0603C167.25 80.4117 170.122 78.8291 171.03 78.6604C171.94 78.4918 173.938 77.8191 174.846 79.2498C175.756 80.6804 176.3 81.5237 176.3 81.5237C176.3 81.5237 177.3 78.3231 176.618 71.1678C176.588 70.8453 177.458 70.8527 177.702 71.0844C178.434 71.7738 179.6 73.8735 179.662 80.2598C179.662 80.2598 179.784 72.8172 181.16 72.0518C182.296 71.4198 182.87 75.0633 182.07 81.2401C182.07 81.2401 183.552 75.8917 184.614 75.8824C186.404 75.8657 184.636 90.1671 180.136 94.4296L173.12 93.0563Z" fill="#F9B384"/>
<path d="M181.616 90.8677C181.536 91.5794 181.448 92.2688 181.352 92.9359V92.9433C181.032 95.3155 180.632 97.4356 180.168 99.2517C180.144 99.3407 180.128 99.4222 180.104 99.5038C178.736 104.7 178.488 107.243 173.816 106.561L169.008 101.49L168.96 101.439L168.608 101.068L169.584 98.3993L169.712 98.0508L170.432 96.1086L170.52 95.8566L171.752 92.5134L172.248 91.1568L181.616 90.8677Z" fill="#F9B384"/>
<path d="M92.294 275.498L91.0698 279.043C82.6782 281.597 77.7836 284.523 77.4698 287.938H101.737L103.682 276.07C98.767 277.182 94.8286 276.41 92.294 275.498Z" fill="#1F3C88"/>
<path d="M95.3366 266.687L92.294 275.498C94.8286 276.41 98.767 277.182 103.682 276.07L104.937 268.417L95.3366 266.687Z" fill="#F9B384"/>
<path d="M136.824 275.105L137.536 266.132L126.137 266.688L125.514 274.96C130.34 276.385 134.33 275.828 136.824 275.105Z" fill="#F9B384"/>
<path d="M150.536 287.938C150.222 284.523 145.936 279.845 136.536 278.733L136.824 275.105C134.33 275.828 130.34 276.385 125.514 274.96L124.537 287.938H150.536Z" fill="#1F3C88"/>
<path d="M127.584 95.3599L113.833 95.4489V76.1752H127.169L127.177 77.3539L127.241 83.4622L127.337 93.2695L127.584 95.3599Z" fill="#F9B384"/>
<path d="M127.241 84.3888C124.769 86.798 118.321 84.0775 115.601 81.4236L127.177 78.2806L127.241 84.3888Z" fill="#E28B6D"/>
<path d="M130.432 71.7275C130.424 73.1508 130.328 74.6408 130.072 76.0641C129.4 79.9484 127.625 83.3065 123.529 83.4103C113.849 83.6697 111.088 78.54 109.265 74.3443C107.441 70.1411 110.401 60.0373 110.401 60.0373L122.929 58.8883L129.808 64.1144C129.808 64.1144 130.472 67.6652 130.432 71.7275Z" fill="#F9B384"/>
<path d="M109.655 71.9406C109.655 71.9406 112.416 71.8239 112.888 65.2189C117.827 66.7497 121.435 65.3542 124.294 62.3057C126.734 65.2912 133.564 66.2271 135.87 60.1133C137.536 55.697 132.936 49.1181 126.237 53.1025C119.67 50.028 109.711 50.2393 106.845 57.7801C106.845 57.7801 96.8816 62.0369 107.431 71.4087C107.643 71.5959 109.655 71.9406 109.655 71.9406Z" fill="#102048"/>
<path d="M147.738 164.63L140.136 271.135H122.27L126.737 167.786L129.47 166.613L147.738 164.63Z" fill="#102048"/>
<path d="M101.203 150.058L88.6698 271.135H108.137L126.67 170.566L147.736 164.636L148.67 143.138L101.737 142.15L101.203 150.058Z" fill="#1F3C88"/>
<path d="M143.756 143.034H143.746L143.736 142.996L143.756 143.034Z" fill="#6C758D"/>
<path d="M116.214 151.646C116.467 150.562 116.703 149.48 116.922 148.405C117.148 148.407 117.373 148.409 117.599 148.409C118.564 148.409 119.525 148.385 120.481 148.34C123.537 148.207 126.537 147.851 129.416 147.325C134.24 146.457 138.768 145.145 142.744 143.648C143.104 143.522 143.456 143.381 143.8 143.247L143.746 143.034H143.756L144.756 144.891C141.098 148.37 127.585 151.407 116.214 151.646Z" fill="#162B62"/>
<path d="M143.8 143.247C143.456 143.381 143.104 143.522 142.744 143.648C138.768 145.145 134.24 146.457 129.416 147.325C126.537 147.851 123.537 148.207 120.481 148.34C115.872 148.555 111.137 148.273 106.449 147.287L112.408 95.7972L113.137 89.5185C113.137 89.5185 120.937 98.414 129.536 88.5919L143.8 143.247Z" fill="white"/>
<path d="M117.599 148.409C117.373 148.409 117.148 148.407 116.922 148.405C120.638 130.11 119.384 112.982 115.893 96.3181C120.646 109.252 124.772 132.517 120.481 148.34C119.525 148.385 118.564 148.409 117.599 148.409Z" fill="#BBC4DB"/>
<path d="M113.837 87.48C119.762 110.794 122.201 134.784 113.47 161.424C106.995 163.705 99.9462 163.679 92.4032 161.67L94.2698 113.24L50.3366 141.224L47.67 125.966C64.5582 111.001 93.7578 88.3974 113.837 87.48Z" fill="#708CD5"/>
<path d="M129.416 147.325C126.769 133.255 126.185 110.141 128.336 99.7113L142.744 143.648C138.768 145.145 134.24 146.457 129.416 147.325Z" fill="#BBC4DB"/>
<path d="M175.168 106.67C174.764 106.67 174.316 106.633 173.816 106.561L169.008 101.49L168.96 101.439L169.584 98.3993L169.712 98.0509L170.432 96.1087L170.52 95.8566L180.168 99.2517C180.144 99.3407 180.128 99.4222 180.104 99.5038C178.882 104.144 178.554 106.67 175.168 106.67Z" fill="#EB9B76"/>
<path d="M179.336 103.974C179.336 103.974 167.536 127.139 160.536 127.695C153.75 128.234 150.536 122.135 150.536 122.135L155.336 155.99C149.696 158.437 143.544 159.63 136.4 158.459C130.056 139.37 127.659 114.689 127.187 87.202C132.322 87.4985 142.494 87.9044 146.136 90.0745C152.67 93.9663 160.736 107.866 160.736 107.866L170.136 96.0049L179.336 103.974Z" fill="#708CD5"/>
<path d="M35.4848 71.3328C35.4848 71.3328 36.199 60.2523 37.4162 60.7749C38.6334 61.2975 41.0744 70.9325 41.0744 70.9325L38.4642 74.8372L35.4848 71.3328Z" fill="#6F3428"/>
<path d="M71.396 271.445L71.7496 275.092C72.3738 281.53 67.2468 287.219 60.2986 287.798L59.2868 287.881C52.3388 288.459 46.1992 283.709 45.575 277.271L45.2214 273.624L71.396 271.445Z" fill="#EE6F57"/>
<path d="M54.2726 94.8392L71.3962 271.445L45.2214 273.624L28.098 97.0167L54.2726 94.8392Z" fill="#FBC343"/>
<path d="M35.7382 96.381L35.3232 92.1019L46.2126 91.1957L46.6276 95.4748L45.034 95.6082L44.7622 92.8043L37.06 93.4455L37.3318 96.2495L35.7382 96.381Z" fill="#D4C2BE"/>
<path d="M50.4756 248.379L35.7382 96.381L37.3318 96.2494L51.9262 246.769L59.6284 246.128L45.034 95.6082L46.6276 95.4748L61.2936 246.734L61.3652 247.473L50.4756 248.379Z" fill="#D1983B"/>
<path d="M71.3926 271.447L45.2246 273.626L44.5366 266.51L44.0566 261.565L42.5766 246.369L68.7526 244.189L70.2246 259.386L70.7046 264.33L71.3926 271.447Z" fill="#102048"/>
<path d="M70.7046 264.33L44.5366 266.51L44.0566 261.565L70.2246 259.386L70.7046 264.33Z" fill="#FBC343"/>
<path d="M28.0946 97.0186L35.3652 70.017C35.3652 70.017 37.8748 71.0492 40.9188 69.3072L54.2712 94.8391L28.0946 97.0186Z" fill="#EE6F57"/>
<path d="M111.103 70.8231C110.986 70.4247 109.032 69.878 108.602 69.7686C107.937 69.5981 107.211 69.5147 106.562 69.7853C104.2 70.7749 104.515 73.9087 105.739 75.5563C106.433 76.4884 107.448 77.2075 108.628 77.5207C109.057 77.6337 113.121 77.6801 112.943 77.0741L111.103 70.8231Z" fill="#F9B384"/>
<path d="M36.7366 133.811C36.1226 132.024 34.1028 131.023 32.1912 131.635C29.2134 132.588 26.62 134.204 26.2182 136.954C25.8526 139.458 27.204 147.454 33.2402 148.483L32.7474 144.372C32.7474 144.372 36.4432 143.574 37.1824 142.089C37.6996 141.051 37.7342 136.713 36.7366 133.811Z" fill="#F9B384"/>
<path d="M148.692 106.305C149.01 108.055 149.28 109.81 149.538 111.566C149.808 113.321 150.02 115.084 150.264 116.843L150.884 122.128C151.064 123.894 151.242 125.658 151.358 127.432L151.048 127.465C150.72 125.716 150.454 123.959 150.19 122.204L149.476 116.928C149.276 115.164 149.044 113.405 148.868 111.639C148.682 109.874 148.508 108.108 148.382 106.338L148.692 106.305Z" fill="#1F3C88"/>
<path d="M94.8928 106.02C94.8884 107.984 94.8366 109.949 94.7738 111.911C94.7202 113.874 94.611 115.836 94.5324 117.797L94.1856 123.679C94.044 125.64 93.8984 127.599 93.6928 129.556L93.3804 129.541C93.3746 127.576 93.4292 125.612 93.4874 123.649L93.7406 117.764C93.862 115.803 93.9528 113.84 94.0992 111.881C94.2364 109.923 94.3846 107.962 94.5804 106.005L94.8928 106.02Z" fill="#1F3C88"/>
<path d="M120.812 70.6397C120.981 71.3383 120.67 71.9981 120.118 72.113C119.565 72.2279 118.98 71.7535 118.811 71.0548C118.642 70.3561 118.953 69.6964 119.505 69.5815C120.058 69.4666 120.643 69.941 120.812 70.6397Z" fill="#102048"/>
<path d="M128.786 69.776C128.752 70.4914 128.268 71.0529 127.702 71.0307C127.137 71.0084 126.705 70.4117 126.737 69.6945C126.77 68.9791 127.255 68.4176 127.82 68.4398C128.386 68.4621 128.818 69.0588 128.786 69.776Z" fill="#102048"/>
<path d="M124.339 70.3617C124.614 70.9751 124.57 71.6348 124.747 72.1371C124.838 72.391 124.962 72.6152 125.135 72.7542C125.295 72.8895 125.555 72.9766 125.885 73.0952C126.225 73.2175 126.587 73.4343 126.833 73.7587C127.095 74.0718 127.167 74.6149 126.93 74.9707C126.717 75.3265 126.411 75.5229 126.149 75.7027C125.874 75.8751 125.61 76.0567 125.325 76.2179L125.119 75.9992C125.329 75.7602 125.56 75.5415 125.781 75.3135C126.008 75.0948 126.217 74.8836 126.297 74.689C126.467 74.3461 126.104 73.9699 125.579 73.7772C125.308 73.6623 124.918 73.5622 124.604 73.2639C124.3 72.9766 124.15 72.6189 124.09 72.2835C123.958 71.5959 124.109 71.0085 124.038 70.4377L124.339 70.3617Z" fill="#E28B6D"/>
<path d="M116.995 68.7623C117.113 68.3231 117.402 67.9061 117.811 67.6078C118.214 67.2964 118.74 67.1296 119.262 67.1037C120.312 67.0444 121.352 67.5985 121.784 68.4176L121.539 68.5974C120.844 68.0915 120.079 67.8153 119.3 67.8413C118.518 67.8598 117.809 68.2323 117.278 68.8846L116.995 68.7623Z" fill="#102048"/>
<path d="M125.252 67.8542C125.37 67.5114 125.578 67.1852 125.88 66.9184C126.175 66.6441 126.587 66.4625 127.015 66.3976C127.874 66.266 128.798 66.67 129.136 67.378L128.886 67.5522C128.324 67.2019 127.711 67.0536 127.133 67.1278C126.843 67.163 126.569 67.2631 126.297 67.4113C126.03 67.5651 125.787 67.7746 125.521 68.0025L125.252 67.8542Z" fill="#102048"/>
<path d="M120.826 77.5411C122.223 79.5667 124.084 79.7872 125.522 77.656L120.826 77.5411Z" fill="white"/>
<path d="M130.36 73.7068C130.406 73.0415 130.428 72.378 130.432 71.7275C130.434 71.5644 130.434 71.4013 130.434 71.2383C130.446 71.2364 130.458 71.2346 130.47 71.2327C130.466 71.961 130.428 72.8358 130.36 73.7068Z" fill="#FECFC9"/>
<path d="M130.072 76.0641C129.104 75.775 128.4 74.9373 128.4 73.9366C128.4 72.8283 129.306 71.4329 130.434 71.2383C130.434 71.4013 130.434 71.5644 130.432 71.7275C130.428 72.378 130.406 73.0415 130.36 73.7068C130.294 74.5315 130.2 75.3506 130.076 76.0418C130.076 76.0493 130.074 76.0567 130.072 76.0641Z" fill="#FAA280"/>
<path d="M117.416 77.6505C115.992 77.6505 114.837 76.5811 114.837 75.2616C114.837 73.9403 115.992 72.871 117.416 72.871C118.841 72.871 119.996 73.9403 119.996 75.2616C119.996 76.5811 118.841 77.6505 117.416 77.6505Z" fill="#FAA280"/>
<path d="M109.412 73.2045C108.902 72.8839 108.435 72.5337 107.97 72.3242C107.739 72.2205 107.525 72.1574 107.333 72.1723C107.14 72.1852 106.918 72.289 106.668 72.454L106.405 72.2964C106.514 72.0018 106.744 71.6701 107.165 71.5403C107.584 71.405 108.009 71.5144 108.323 71.6645C108.96 71.9869 109.396 72.4614 109.661 73.0303L109.412 73.2045Z" fill="#E28B6D"/>
<path d="M33.4694 152.543L33.098 148.587L33.479 152.517L33.4694 152.543Z" fill="#A9857E"/>
<path d="M33.479 152.517L33.098 148.587L33.0856 148.455C33.1368 148.464 33.1882 148.474 33.2402 148.483L32.7474 144.372C32.7474 144.372 32.8772 144.345 33.093 144.289C33.7076 144.146 34.2424 143.974 34.7138 143.777C35.723 143.392 36.816 142.825 37.1824 142.089L33.479 152.517Z" fill="#A76D33"/>
<path d="M33.2402 148.483C33.1882 148.474 33.1368 148.464 33.0856 148.455L32.7028 144.374C32.8362 144.346 32.9664 144.319 33.093 144.289C32.8772 144.345 32.7474 144.372 32.7474 144.372L33.2402 148.483ZM34.7138 143.777C35.8236 143.316 36.579 142.727 37.1824 142.089C36.816 142.825 35.723 143.392 34.7138 143.777Z" fill="#A6674D"/>
</svg>
